<?xml version="1.0" encoding="utf-8"?>
<svg xmlns="http://www.w3.org/2000/svg" viewBox="0 0 512 512" width="512px" height="512px">
  <defs>
    <linearGradient id="a" x1="0%" y1="0%" x2="100%" y2="100%">
      <stop offset="0" style="stop-color:#3d4557;stop-opacity:1"/>
      <stop offset="1" style="stop-color:#2a2f3d;stop-opacity:1"/>
    </linearGradient>
    <linearGradient id="b" x1="0%" y1="0%" x2="0%" y2="100%">
      <stop offset="0" style="stop-color:#fff;stop-opacity:1"/>
      <stop offset="1" style="stop-color:#f5f5f5;stop-opacity:1"/>
    </linearGradient>
    <linearGradient id="c" x1="0%" y1="0%" x2="100%" y2="100%">
      <stop offset="0" style="stop-color:#e67a5f;stop-opacity:1"/>
      <stop offset="0.5" style="stop-color:#d95d3f;stop-opacity:1"/>
      <stop offset="1" style="stop-color:#c94a2f;stop-opacity:1"/>
    </linearGradient>
  </defs>
  <rect width="512" height="512" rx="56.308" ry="56.308" style="fill:url(#a)" transform="matrix(1, 0, 0, 1, -1.4210854715202004e-14, 0)"/>
  <path d="M 166.611 67.019 C 166.611 48.613 181.535 33.686 199.943 33.686 L 311.056 33.686 C 329.464 33.686 344.388 48.613 344.388 67.019 L 344.388 89.239 C 344.388 107.65 329.464 122.575 311.056 122.575 L 199.943 122.575 C 181.535 122.575 166.611 107.65 166.611 89.239 L 166.611 67.019 Z" style="stroke-width:33.333;fill:url(#b)" transform="matrix(1, 0, 0, 1, -1.4210854715202004e-14, 0)"/>
  <path fill-rule="evenodd" clip-rule="evenodd" d="M 133.749 79.583 C 105.796 81.148 88.149 85.603 75.497 98.255 C 55.972 117.78 55.972 149.206 55.972 212.063 L 55.972 345.397 C 55.972 408.248 55.972 439.674 75.497 459.203 C 95.023 478.729 126.453 478.729 189.305 478.729 L 322.639 478.729 C 385.491 478.729 416.919 478.729 436.446 459.203 C 455.972 439.674 455.972 408.248 455.972 345.397 L 455.972 212.063 C 455.972 149.206 455.972 117.78 436.446 98.255 C 423.792 85.603 406.148 81.148 378.192 79.583 L 378.192 89.876 C 378.192 126.697 348.349 156.544 311.527 156.544 L 200.416 156.544 C 163.597 156.544 133.749 126.697 133.749 89.876 L 133.749 79.583 Z" style="stroke-width:33.333;fill:url(#b)" transform="matrix(1, 0, 0, 1, -1.4210854715202004e-14, 0)"/>
  <path xmlns="http://www.w3.org/2000/svg" d="M 282.491 366.411 C 245.339 369.579 213.408 344.564 205.658 310.363 C 198.105 277.073 221.119 242.716 255.194 242.519 C 280.902 242.375 302.285 261.045 306.423 285.574 C 309.55 304.151 298.229 323.149 279.519 325.111 C 260.891 327.073 245.174 312.5 245.174 294.255 C 245.174 288.537 249.797 283.903 255.504 283.903 C 261.201 283.903 265.834 288.537 265.834 294.255 C 265.834 299.96 270.458 304.595 276.155 304.595 C 281.861 304.595 286.485 299.96 286.485 294.255 C 286.485 275.997 270.768 261.436 252.141 263.386 C 233.429 265.368 222.11 284.347 225.237 302.933 C 229.384 327.475 250.757 346.133 276.465 345.988 C 310.541 345.793 333.555 311.437 326.01 278.145 C 316.743 237.256 272.925 209.516 226.939 227.318 C 203.45 236.401 186.702 258.185 183.831 283.242 C 177.733 336.484 216.516 382.077 267.177 386.948 C 272.326 387.444 276.155 391.963 276.155 397.155 C 276.155 403.325 270.788 408.104 264.648 407.485 C 207.835 401.768 163.368 354.121 162.552 295.884 C 161.933 251.85 192.634 212.086 235.68 203.19 C 291.315 191.684 340.727 230.002 347.632 281.798 C 353.152 323.129 323.967 362.871 282.491 366.411" style="stroke-width:1;fill:url(#c)" transform="matrix(1, 0, 0, 1, -1.4210854715202004e-14, 0)"/>
</svg>